<?xml version="1.0" encoding="utf-8"?>
<!-- Created by UniConvertor 2.0rc5 (https://sk1project.net/) -->
<svg xmlns="http://www.w3.org/2000/svg" height="109.0px" width="474.0px" version="1.1" xmlns:xlink="http://www.w3.org/1999/xlink" id="1dcb78a0-0559-11ee-a54f-a8a1598cb569">

<g>
	<path style="fill:#ffffff;" d="M 0.0,0.0 L 0.0,109.0 394.0,109.0 394.0,108.0 C 391.309,107.977 388.598,108.013 386.0,107.196 381.821,105.882 371.899,96.4798 380.228,93.4066 384.556,91.8098 391.154,96.3049 395.995,95.8765 398.113,95.6892 401.364,94.8171 401.364,92.1188 401.364,87.7737 386.228,86.073 383.015,83.581 367.106,71.2399 384.659,56.0293 399.0,56.0293 401.72,56.0293 404.38,56.437 407.0,57.1597 411.242,58.3299 422.063,66.9209 413.29,70.4576 409.906,71.8219 403.787,68.9037 400.001,69.0231 398.09,69.0834 394.207,69.2707 394.207,72.0147 394.207,76.3103 407.853,78.0274 410.999,79.9946 427.67,90.4195 414.307,107.674 399.0,108.0 L 399.0,109.0 474.0,109.0 474.0,0.0 0.0,0.0 Z" />
	<path style="fill:#012f5f;" d="M 51.0,30.0 C 60.8949,32.4999 82.5231,28.5777 90.3966,36.5995 93.6751,39.9398 92.1706,49.6657 91.9599,54.0 91.1328,71.0143 89.0,87.6693 89.0,105.0 L 92.0,105.0 92.0,89.0 93.0,89.0 C 101.086,105.234 122.638,112.07 139.0,104.005 145.845,100.631 149.515,94.868 155.0,90.0 155.0,95.4296 154.994,100.645 154.0,106.0 L 158.0,106.0 C 158.0,80.8184 156.0,56.1268 156.0,31.0 167.659,29.2781 181.176,24.658 192.0,20.0 179.064,12.0991 158.638,10.4448 144.0,6.2901 137.74,4.5133 129.552,0.7512 123.0,1.419 109.861,2.758 94.2943,12.4818 82.0,17.3997 74.736,20.3054 67.4868,23.7352 60.0394,26.1312 56.0838,27.4037 53.2517,25.9713 51.0,30.0 Z" />
	<path style="fill:#bebebe;" d="M 126.0,1.0 L 127.0,2.0 126.0,1.0 Z" />
	<path style="fill:#728ca7;" d="M 133.0,3.0 L 134.0,4.0 133.0,3.0 Z" />
	<path style="fill:#597797;" d="M 114.0,4.0 L 115.0,5.0 114.0,4.0 Z" />
	<path style="fill:#bebebe;" d="M 137.0,4.0 L 138.0,5.0 137.0,4.0 Z" />
	<path style="fill:#597797;" d="M 109.0,6.0 L 110.0,7.0 109.0,6.0 M 144.0,6.0 L 145.0,7.0 144.0,6.0 Z" />
	<path style="fill:#9aaabb;" d="M 148.0,7.0 L 149.0,8.0 148.0,7.0 Z" />
	<path style="fill:#597797;" d="M 104.0,8.0 L 105.0,9.0 104.0,8.0 M 155.0,9.0 L 156.0,10.0 155.0,9.0 M 99.0,10.0 L 100.0,11.0 99.0,10.0 Z" />
	<path style="fill:#9aaabb;" d="M 159.0,10.0 L 160.0,11.0 159.0,10.0 Z" />
	<path style="fill:#728ca7;" d="M 94.0,12.0 L 95.0,13.0 94.0,12.0 Z" />
	<path style="fill:#597797;" d="M 166.0,12.0 L 167.0,13.0 166.0,12.0 Z" />
	<path style="fill:#9aaabb;" d="M 170.0,13.0 L 171.0,14.0 170.0,13.0 Z" />
	<path style="fill:#728ca7;" d="M 89.0,14.0 L 90.0,15.0 89.0,14.0 Z" />
	<path style="fill:#597797;" d="M 177.0,15.0 L 178.0,16.0 177.0,15.0 Z" />
	<path style="fill:#728ca7;" d="M 84.0,16.0 L 85.0,17.0 84.0,16.0 Z" />
	<path style="fill:#9aaabb;" d="M 181.0,16.0 L 182.0,17.0 181.0,16.0 Z" />
	<path style="fill:#c9cfd5;" d="M 185.0,17.0 L 186.0,18.0 185.0,17.0 Z" />
	<path style="fill:#9a9a9a;" d="M 79.0,18.0 L 80.0,19.0 79.0,18.0 Z" />
	<path style="fill:#728ca7;" d="M 192.0,19.0 L 193.0,20.0 192.0,19.0 Z" />
	<path style="fill:#9a9a9a;" d="M 74.0,20.0 L 75.0,21.0 74.0,20.0 Z" />
	<path style="fill:#9aaabb;" d="M 69.0,22.0 L 70.0,23.0 69.0,22.0 Z" />
	<path style="fill:#597797;" d="M 184.0,22.0 L 185.0,23.0 184.0,22.0 Z" />
	<path style="fill:#9a9a9a;" d="M 181.0,23.0 L 182.0,24.0 181.0,23.0 Z" />
	<path style="fill:#9aaabb;" d="M 64.0,24.0 L 65.0,25.0 64.0,24.0 Z" />
	<path style="fill:#bebebe;" d="M 178.0,24.0 L 179.0,25.0 178.0,24.0 Z" />
	<path style="fill:#9aaabb;" d="M 52.0,26.0 L 53.0,27.0 52.0,26.0 Z" />
	<path style="fill:#c9cfd5;" d="M 55.0,26.0 L 56.0,27.0 55.0,26.0 Z" />
	<path style="fill:#9aaabb;" d="M 59.0,26.0 L 60.0,27.0 59.0,26.0 M 51.0,27.0 L 52.0,28.0 51.0,27.0 Z" />
	<path style="fill:#728ca7;" d="M 56.0,27.0 L 57.0,28.0 56.0,27.0 M 168.0,27.0 L 169.0,28.0 168.0,27.0 Z" />
	<path style="fill:#9aaabb;" d="M 165.0,28.0 L 166.0,29.0 165.0,28.0 M 62.0,30.0 L 63.0,31.0 62.0,30.0 M 53.6667,31.3333 C 53.2222,31.7778 54.2778,31.7222 54.3333,31.6667 54.7777,31.2223 53.7223,31.2777 53.6667,31.3333 Z" />
	<path style="fill:#597797;" d="M 68.0,31.0 L 69.0,32.0 68.0,31.0 Z" />
	<path style="fill:#9aaabb;" d="M 73.0,32.0 L 74.0,33.0 73.0,32.0 Z" />
	<path style="fill:#597797;" d="M 79.0,33.0 L 80.0,34.0 79.0,33.0 Z" />
	<path style="fill:#012f5f;" d="M 53.0,34.0 C 53.2447,44.4573 54.3535,48.3362 49.0,58.0 L 53.0,57.0 C 52.0143,58.4785 52.0,58.2032 52.0,60.0 60.1691,53.1814 59.0323,41.9706 53.0,34.0 Z" />
	<path style="fill:#bebebe;" d="M 84.0,34.0 L 85.0,35.0 84.0,34.0 Z" />
	<path style="fill:#728ca7;" d="M 90.0,35.0 L 91.0,36.0 90.0,35.0 Z" />
	<path style="fill:#9a9a9a;" d="M 355.0,35.0 L 356.0,36.0 355.0,35.0 Z" />
	<path style="fill:#010101;" d="M 356.015,35.7461 C 345.372,39.7948 351.385,55.7456 361.985,52.0671 372.814,48.3089 366.813,31.6389 356.015,35.7461 Z" />
	<path style="fill:#5c5c5c;" d="M 362.0,35.0 L 363.0,36.0 362.0,35.0 Z" />
	<path style="fill:#9aaabb;" d="M 353.0,36.0 L 354.0,37.0 353.0,36.0 Z" />
	<path style="fill:#494949;" d="M 364.0,36.0 L 365.0,37.0 364.0,36.0 M 352.0,37.0 L 353.0,38.0 352.0,37.0 Z" />
	<path style="fill:#9aaabb;" d="M 55.0,38.0 L 56.0,39.0 55.0,38.0 M 351.0,38.0 L 352.0,39.0 351.0,38.0 Z" />
	<path style="fill:#343434;" d="M 366.0,38.0 L 367.0,39.0 366.0,38.0 Z" />
	<path style="fill:#9aaabb;" d="M 56.0,40.0 L 57.0,41.0 56.0,40.0 Z" />
	<path style="fill:#858585;" d="M 239.0,40.0 L 240.0,41.0 239.0,40.0 Z" />
	<path style="fill:#010101;" d="M 237.0,41.0 L 237.0,57.0 C 229.81,56.4333 222.653,55.7979 216.0,59.4174 201.74,67.1756 199.416,90.6277 211.185,101.671 218.845,108.858 232.325,109.462 242.0,106.841 260.185,101.915 254.0,75.8956 254.0,61.0 254.0,56.0269 255.795,46.519 252.258,42.5139 248.715,38.5021 241.52,40.1608 237.0,41.0 Z" />
	<path style="fill:#6f6f6f;" d="M 249.0,40.0 L 250.0,41.0 249.0,40.0 Z" />
	<path style="fill:#858585;" d="M 350.0,40.0 L 351.0,41.0 350.0,40.0 Z" />
	<path style="fill:#597797;" d="M 54.0,42.0 L 55.0,43.0 54.0,42.0 Z" />
	<path style="fill:#9aaabb;" d="M 122.0,44.0 L 122.0,45.0 125.0,45.0 C 123.752,44.3152 123.452,44.2512 122.0,44.0 Z" />
	<path style="fill:#bebebe;" d="M 6.0,45.0 L 7.0,46.0 6.0,45.0 Z" />
	<path style="fill:#010101;" d="M 42.0,81.0 L 43.0,81.0 C 43.5375,87.5802 45.1944,99.9187 50.2785,104.566 63.0339,116.227 73.8866,100.741 76.3488,90.0 78.9154,78.8034 83.6132,63.4949 81.8511,52.0046 80.8671,45.5879 70.3101,42.2426 66.0278,47.7276 63.7788,50.6082 64.2538,57.4651 63.9252,61.0 L 60.0,92.0 59.0,92.0 C 57.2802,83.6677 55.6964,68.9572 50.2724,62.2785 47.1308,58.4103 38.3694,57.5864 34.5139,60.858 28.6272,65.8532 27.5355,84.5568 26.0,92.0 19.9091,79.3462 24.0888,62.7623 18.0054,50.108 14.7808,43.4005 1.3141,43.3325 1.1482,52.0154 0.8916,65.4381 4.9072,90.5076 12.0856,101.945 15.9054,108.031 31.3482,109.978 35.8603,103.606 39.8811,97.9273 40.1197,87.6753 42.0,81.0 Z" />
	<path style="fill:#6f6f6f;" d="M 12.0,45.0 L 13.0,46.0 12.0,45.0 Z" />
	<path style="fill:#494949;" d="M 70.0,45.0 L 71.0,46.0 70.0,45.0 Z" />
	<path style="fill:#bebebe;" d="M 76.0,45.0 L 77.0,46.0 76.0,45.0 Z" />
	<path style="fill:#9aaabb;" d="M 113.0,45.0 L 114.0,46.0 113.0,45.0 Z" />
	<path style="fill:#ffffff;" d="M 102.0,50.0 L 102.0,51.0 C 110.827,51.0253 116.628,53.9232 123.0,60.0 L 124.0,60.0 C 130.332,54.5254 136.512,51.1808 145.0,51.0 134.996,40.9771 113.24,43.6105 102.0,50.0 Z" />
	<path style="fill:#9a9a9a;" d="M 267.0,45.0 L 268.0,46.0 267.0,45.0 Z" />
	<path style="fill:#010101;" d="M 302.0,81.0 L 303.0,81.0 C 304.922,87.8222 305.656,96.725 309.442,102.786 313.305,108.971 329.641,109.204 333.431,102.775 340.088,91.4838 343.742,66.0015 342.852,53.0008 342.373,46.0092 330.3,41.3308 326.589,48.419 321.195,58.72 321.499,80.373 321.0,92.0 L 320.0,92.0 C 317.843,84.344 316.196,64.4211 308.867,60.3179 304.445,57.8424 298.692,59.407 294.0,60.0 291.975,70.4403 290.158,82.2111 286.0,92.0 283.565,81.8893 282.768,71.2659 281.08,61.0 280.356,56.5924 280.321,50.6877 276.721,47.5139 271.37,42.7949 262.054,45.5151 262.059,53.0039 262.067,67.373 266.567,85.4996 271.36,98.9961 274.176,106.927 289.943,111.36 296.146,104.347 300.4,99.5373 301.492,87.2221 302.0,81.0 Z" />
	<path style="fill:#9a9a9a;" d="M 273.0,45.0 L 274.0,46.0 273.0,45.0 Z" />
	<path style="fill:#c9cfd5;" d="M 330.0,45.0 L 331.0,46.0 330.0,45.0 Z" />
	<path style="fill:#494949;" d="M 336.0,45.0 L 337.0,46.0 336.0,45.0 Z" />
	<path style="fill:#9aaabb;" d="M 15.0,46.0 L 16.0,47.0 15.0,46.0 Z" />
	<path style="fill:#9a9a9a;" d="M 109.0,46.0 L 110.0,47.0 109.0,46.0 Z" />
	<path style="fill:#728ca7;" d="M 137.0,46.0 L 138.0,47.0 137.0,46.0 Z" />
	<path style="fill:#bebebe;" d="M 264.0,46.0 L 265.0,47.0 264.0,46.0 Z" />
	<path style="fill:#9aaabb;" d="M 327.0,46.0 L 328.0,47.0 327.0,46.0 M 54.0,47.0 L 55.0,48.0 54.0,47.0 Z" />
	<path style="fill:#858585;" d="M 80.0,47.0 L 81.0,48.0 80.0,47.0 Z" />
	<path style="fill:#6f6f6f;" d="M 277.0,47.0 L 278.0,48.0 277.0,47.0 Z" />
	<path style="fill:#5c5c5c;" d="M 367.0,47.0 L 368.0,48.0 367.0,47.0 Z" />
	<path style="fill:#494949;" d="M 17.0,48.0 L 18.0,49.0 17.0,48.0 M 261.333,48.6667 C 261.278,48.7222 261.222,49.7778 261.667,49.3333 261.722,49.2778 261.778,48.2223 261.333,48.6667 Z" />
	<path style="fill:#9a9a9a;" d="M 342.0,49.0 L 343.0,50.0 342.0,49.0 Z" />
	<path style="fill:#6f6f6f;" d="M 18.0,50.0 L 19.0,51.0 18.0,50.0 Z" />
	<path style="fill:#597797;" d="M 53.0,50.0 L 54.0,51.0 53.0,50.0 Z" />
	<path style="fill:#9aaabb;" d="M 261.0,50.0 L 262.0,51.0 261.0,50.0 Z" />
	<path style="fill:#bebebe;" d="M 365.0,50.0 L 366.0,51.0 365.0,50.0 Z" />
	<path style="fill:#9aaabb;" d="M 110.0,51.0 L 111.0,52.0 110.0,51.0 M 138.0,51.0 L 139.0,52.0 138.0,51.0 Z" />
	<path style="fill:#494949;" d="M 144.667,51.3333 C 144.222,51.7778 145.278,51.7222 145.333,51.6667 145.778,51.2222 144.722,51.2778 144.667,51.3333 Z" />
	<path style="fill:#6f6f6f;" d="M 279.0,51.0 L 280.0,52.0 279.0,51.0 Z" />
	<path style="fill:#9aaabb;" d="M 52.0,52.0 L 53.0,53.0 52.0,52.0 Z" />
	<path style="fill:#597797;" d="M 57.0,52.0 L 58.0,53.0 57.0,52.0 Z" />
	<path style="fill:#9a9a9a;" d="M 325.0,52.0 L 326.0,53.0 325.0,52.0 Z" />
	<path style="fill:#494949;" d="M 357.0,52.0 L 358.0,53.0 357.0,52.0 Z" />
	<path style="fill:#bebebe;" d="M 361.0,52.0 L 362.0,53.0 361.0,52.0 Z" />
	<path style="fill:#c9cfd5;" d="M 115.0,53.0 L 116.0,54.0 115.0,53.0 Z" />
	<path style="fill:#9aaabb;" d="M 132.0,53.0 L 133.0,54.0 132.0,53.0 Z" />
	<path style="fill:#343434;" d="M 325.0,53.0 L 326.0,54.0 325.0,53.0 Z" />
	<path style="fill:#9aaabb;" d="M 64.0,54.0 L 65.0,55.0 64.0,54.0 Z" />
	<path style="fill:#597797;" d="M 104.0,54.0 L 105.0,55.0 104.0,54.0 Z" />
	<path style="fill:#9aaabb;" d="M 105.667,54.3333 C 105.222,54.7777 106.278,54.7223 106.333,54.6667 106.778,54.2222 105.722,54.2778 105.667,54.3333 Z" />
	<path style="fill:#597797;" d="M 107.0,54.0 L 108.0,55.0 107.0,54.0 Z" />
	<path style="fill:#c9cfd5;" d="M 130.0,54.0 L 131.0,55.0 130.0,54.0 Z" />
	<path style="fill:#494949;" d="M 1.0,55.0 L 2.0,56.0 1.0,55.0 Z" />
	<path style="fill:#9aaabb;" d="M 19.0,55.0 L 20.0,56.0 19.0,55.0 Z" />
	<path style="fill:#494949;" d="M 64.0,55.0 L 65.0,56.0 64.0,55.0 Z" />
	<path style="fill:#ffffff;" d="M 100.043,55.858 C 90.2551,60.0632 91.6629,78.1946 95.4028,86.0 102.673,101.173 120.687,107.747 136.0,101.12 148.718,95.6166 165.124,68.1236 148.867,57.0093 137.582,49.2944 132.22,64.3211 123.424,63.2338 114.808,62.1687 110.874,51.2049 100.043,55.858 Z" />
	<path style="fill:#9aaabb;" d="M 118.0,55.0 L 119.0,56.0 118.0,55.0 Z" />
	<path style="fill:#597797;" d="M 146.0,55.0 L 147.0,56.0 146.0,55.0 Z" />
	<path style="fill:#bebebe;" d="M 1.0,56.0 L 2.0,57.0 1.0,56.0 Z" />
	<path style="fill:#597797;" d="M 55.0,56.0 L 56.0,57.0 55.0,56.0 Z" />
	<path style="fill:#9aaabb;" d="M 98.0,56.0 L 99.0,57.0 98.0,56.0 M 148.0,56.0 L 149.0,57.0 148.0,56.0 Z" />
	<path style="fill:#bebebe;" d="M 185.0,56.0 L 186.0,57.0 185.0,56.0 Z" />
	<path style="fill:#5c5c5c;" d="M 186.667,56.3333 C 186.222,56.7778 187.278,56.7222 187.333,56.6667 187.778,56.2223 186.722,56.2778 186.667,56.3333 Z" />
	<path style="fill:#343434;" d="M 188.667,56.3333 C 188.222,56.7778 189.278,56.7222 189.333,56.6667 189.778,56.2223 188.722,56.2778 188.667,56.3333 Z" />
	<path style="fill:#5c5c5c;" d="M 190.0,56.0 L 191.0,57.0 190.0,56.0 Z" />
	<path style="fill:#9a9a9a;" d="M 191.0,56.0 L 192.0,57.0 191.0,56.0 Z" />
	<path style="fill:#bebebe;" d="M 225.0,56.0 L 226.0,57.0 225.0,56.0 Z" />
	<path style="fill:#6f6f6f;" d="M 226.0,56.0 L 227.0,57.0 226.0,56.0 Z" />
	<path style="fill:#5c5c5c;" d="M 232.0,56.0 L 233.0,57.0 232.0,56.0 Z" />
	<path style="fill:#c9cfd5;" d="M 233.0,56.0 L 234.0,57.0 233.0,56.0 Z" />
	<path style="fill:#9a9a9a;" d="M 393.0,56.0 L 394.0,57.0 393.0,56.0 Z" />
	<path style="fill:#010101;" d="M 414.0,72.0 C 422.801,53.7068 391.754,53.1495 382.185,60.8002 371.542,69.3102 378.043,83.0128 389.0,86.6412 391.751,87.5521 400.793,88.0481 400.793,92.0856 400.793,101.973 380.41,88.7661 377.619,96.0741 375.285,102.185 382.056,106.327 387.0,107.471 396.586,109.687 412.551,109.078 417.427,98.9961 422.483,88.5436 414.535,80.1721 405.0,77.206 402.885,76.5482 392.803,75.1593 394.346,71.3256 396.688,65.5045 410.291,70.6175 414.0,72.0 Z" />
	<path style="fill:#5c5c5c;" d="M 403.0,56.0 L 404.0,57.0 403.0,56.0 Z" />
	<path style="fill:#bebebe;" d="M 404.0,56.0 L 405.0,57.0 404.0,56.0 M 445.0,56.0 L 446.0,57.0 445.0,56.0 Z" />
	<path style="fill:#494949;" d="M 446.0,56.0 L 447.0,57.0 446.0,56.0 Z" />
	<path style="fill:#010101;" d="M 469.0,93.0 C 458.422,94.5564 448.749,99.4063 441.0,89.0 447.205,87.5057 453.679,86.7589 460.0,85.8696 478.327,83.2913 474.975,64.7211 460.0,58.3627 434.11,47.3695 411.411,80.8761 431.188,100.815 440.076,109.775 477.661,113.478 469.0,93.0 Z" />
	<path style="fill:#5c5c5c;" d="M 452.0,56.0 L 453.0,57.0 452.0,56.0 Z" />
	<path style="fill:#bebebe;" d="M 453.0,56.0 L 454.0,57.0 453.0,56.0 Z" />
	<path style="fill:#597797;" d="M 126.0,57.0 L 127.0,58.0 126.0,57.0 Z" />
	<path style="fill:#010101;" d="M 182.0,107.0 C 182.0,98.7446 178.516,80.2869 183.028,73.3032 186.432,68.0347 197.95,72.0808 198.833,64.9421 200.447,51.882 177.074,57.3554 171.044,60.9051 161.494,66.5272 164.985,83.5633 165.0,93.0 165.006,96.7787 164.469,102.424 167.564,105.258 170.876,108.29 177.859,107.0 182.0,107.0 Z" />
	<path style="fill:#9aaabb;" d="M 195.0,57.0 L 196.0,58.0 195.0,57.0 Z" />
	<path style="fill:#c9cfd5;" d="M 220.0,57.0 L 221.0,58.0 220.0,57.0 Z" />
	<path style="fill:#6f6f6f;" d="M 262.0,57.0 L 263.0,58.0 262.0,57.0 Z" />
	<path style="fill:#737c86;" d="M 280.0,57.0 L 281.0,58.0 280.0,57.0 Z" />
	<path style="fill:#6f6f6f;" d="M 342.0,57.0 L 343.0,58.0 342.0,57.0 Z" />
	<path style="fill:#dedede;" d="M 357.667,57.3333 C 357.222,57.7777 358.278,57.7222 358.333,57.6667 358.778,57.2222 357.722,57.2778 357.667,57.3333 Z" />
	<path style="fill:#597797;" d="M 48.0,58.0 L 49.0,59.0 48.0,58.0 M 116.0,58.0 L 117.0,59.0 116.0,58.0 M 125.0,58.0 L 126.0,59.0 125.0,58.0 Z" />
	<path style="fill:#6f6f6f;" d="M 176.0,58.0 L 177.0,59.0 176.0,58.0 Z" />
	<path style="fill:#bebebe;" d="M 342.0,58.0 L 343.0,59.0 342.0,58.0 Z" />
	<path style="fill:#010101;" d="M 351.0,58.0 L 351.0,92.0 C 351.0,96.0359 349.83,102.458 353.318,105.397 356.614,108.174 362.986,107.0 367.0,107.0 L 367.0,73.0 C 367.0,68.9641 368.17,62.5422 364.682,59.6034 361.386,56.8262 355.014,58.0 351.0,58.0 Z" />
	<path style="fill:#494949;" d="M 411.0,58.0 L 412.0,59.0 411.0,58.0 Z" />
	<path style="fill:#6f6f6f;" d="M 460.0,58.0 L 461.0,59.0 460.0,58.0 M 36.0,59.0 L 37.0,60.0 36.0,59.0 Z" />
	<path style="fill:#737c86;" d="M 46.0,59.0 L 47.0,60.0 46.0,59.0 Z" />
	<path style="fill:#5c5c5c;" d="M 81.0,59.0 L 82.0,60.0 81.0,59.0 Z" />
	<path style="fill:#9aaabb;" d="M 95.0,59.0 L 96.0,60.0 95.0,59.0 Z" />
	<path style="fill:#bebebe;" d="M 173.0,59.0 L 174.0,60.0 173.0,59.0 Z" />
	<path style="fill:#343434;" d="M 297.0,59.0 L 298.0,60.0 297.0,59.0 Z" />
	<path style="fill:#bebebe;" d="M 307.0,59.0 L 308.0,60.0 307.0,59.0 Z" />
	<path style="fill:#858585;" d="M 365.0,59.0 L 366.0,60.0 365.0,59.0 Z" />
	<path style="fill:#bebebe;" d="M 413.0,59.0 L 414.0,60.0 413.0,59.0 Z" />
	<path style="fill:#5c5c5c;" d="M 462.0,59.0 L 463.0,60.0 462.0,59.0 Z" />
	<path style="fill:#343434;" d="M 33.0,60.0 L 34.0,61.0 33.0,60.0 Z" />
	<path style="fill:#597797;" d="M 51.0,60.0 L 52.0,61.0 51.0,60.0 Z" />
	<path style="fill:#bebebe;" d="M 81.0,60.0 L 82.0,61.0 81.0,60.0 Z" />
	<path style="fill:#597797;" d="M 128.0,60.0 L 129.0,61.0 128.0,60.0 Z" />
	<path style="fill:#6f6f6f;" d="M 171.0,60.0 L 172.0,61.0 171.0,60.0 Z" />
	<path style="fill:#858585;" d="M 382.0,60.0 L 383.0,61.0 382.0,60.0 Z" />
	<path style="fill:#5c5c5c;" d="M 414.0,60.0 L 415.0,61.0 414.0,60.0 Z" />
	<path style="fill:#343434;" d="M 434.0,60.0 L 435.0,61.0 434.0,60.0 Z" />
	<path style="fill:#c9cfd5;" d="M 50.0,61.0 L 51.0,62.0 50.0,61.0 Z" />
	<path style="fill:#597797;" d="M 94.0,61.0 L 95.0,62.0 94.0,61.0 M 127.0,61.0 L 128.0,62.0 127.0,61.0 Z" />
	<path style="fill:#9aaabb;" d="M 152.0,61.0 L 153.0,62.0 152.0,61.0 Z" />
	<path style="fill:#bebebe;" d="M 212.0,61.0 L 213.0,62.0 212.0,61.0 Z" />
	<path style="fill:#858585;" d="M 324.0,61.0 L 325.0,62.0 324.0,61.0 Z" />
	<path style="fill:#bebebe;" d="M 415.0,61.0 L 416.0,62.0 415.0,61.0 Z" />
	<path style="fill:#343434;" d="M 465.0,61.0 L 466.0,62.0 465.0,61.0 Z" />
	<path style="fill:#9a9a9a;" d="M 2.0,62.0 L 3.0,63.0 2.0,62.0 Z" />
	<path style="fill:#5c5c5c;" d="M 20.0,62.0 L 21.0,63.0 20.0,62.0 Z" />
	<path style="fill:#597797;" d="M 126.0,62.0 L 127.0,63.0 126.0,62.0 Z" />
	<path style="fill:#343434;" d="M 168.0,62.0 L 169.0,63.0 168.0,62.0 Z" />
	<path style="fill:#494949;" d="M 211.0,62.0 L 212.0,63.0 211.0,62.0 Z" />
	<path style="fill:#5c5c5c;" d="M 293.0,62.0 L 294.0,63.0 293.0,62.0 Z" />
	<path style="fill:#858585;" d="M 32.0,63.0 L 33.0,64.0 32.0,63.0 Z" />
	<path style="fill:#9a9a9a;" d="M 51.0,63.0 L 52.0,64.0 51.0,63.0 M 63.0,63.0 L 64.0,64.0 63.0,63.0 Z" />
	<path style="fill:#597797;" d="M 125.0,63.0 L 126.0,64.0 125.0,63.0 Z" />
	<path style="fill:#9aaabb;" d="M 199.333,63.6667 C 199.278,63.7222 199.222,64.7778 199.667,64.3333 199.722,64.2778 199.778,63.2222 199.333,63.6667 Z" />
	<path style="fill:#343434;" d="M 210.0,63.0 L 211.0,64.0 210.0,63.0 Z" />
	<path style="fill:#5c5c5c;" d="M 263.0,63.0 L 264.0,64.0 263.0,63.0 Z" />
	<path style="fill:#9aaabb;" d="M 281.0,63.0 L 282.0,64.0 281.0,63.0 Z" />
	<path style="fill:#494949;" d="M 379.0,63.0 L 380.0,64.0 379.0,63.0 Z" />
	<path style="fill:#343434;" d="M 63.0,64.0 L 64.0,65.0 63.0,64.0 Z" />
	<path style="fill:#9aaabb;" d="M 153.0,64.0 L 154.0,65.0 153.0,64.0 Z" />
	<path style="fill:#c9cfd5;" d="M 166.0,64.0 L 167.0,65.0 166.0,64.0 Z" />
	<path style="fill:#494949;" d="M 209.0,64.0 L 210.0,65.0 209.0,64.0 Z" />
	<path style="fill:#737c86;" d="M 312.0,64.0 L 313.0,65.0 312.0,64.0 Z" />
	<path style="fill:#c9cfd5;" d="M 367.0,64.0 L 368.0,65.0 367.0,64.0 Z" />
	<path style="fill:#6f6f6f;" d="M 416.333,64.6667 C 416.278,64.7222 416.222,65.7778 416.667,65.3333 416.722,65.2778 416.778,64.2222 416.333,64.6667 Z" />
	<path style="fill:#c9cfd5;" d="M 105.0,65.0 L 106.0,66.0 105.0,65.0 Z" />
	<path style="fill:#012f5f;" d="M 106.019,65.7577 C 97.1456,69.0111 102.165,82.6595 110.956,79.2531 119.614,75.8982 114.709,62.5716 106.019,65.7577 Z" />
	<path style="fill:#9aaabb;" d="M 137.0,65.0 L 138.0,66.0 137.0,65.0 Z" />
	<path style="fill:#012f5f;" d="M 138.003,65.8773 C 128.478,67.0969 130.43,81.1254 139.985,79.7523 148.771,78.4897 146.79,64.7522 138.003,65.8773 Z" />
	<path style="fill:#597797;" d="M 139.0,65.0 L 140.0,66.0 139.0,65.0 Z" />
	<path style="fill:#9aaabb;" d="M 157.0,65.0 L 158.0,66.0 157.0,65.0 Z" />
	<path style="fill:#737c86;" d="M 341.0,65.0 L 342.0,66.0 341.0,65.0 Z" />
	<path style="fill:#9a9a9a;" d="M 367.0,65.0 L 367.0,107.0 368.0,107.0 C 368.0,95.0427 371.611,75.9878 367.0,65.0 Z" />
	<path style="fill:#737c86;" d="M 469.0,65.0 L 470.0,66.0 469.0,65.0 Z" />
	<path style="fill:#597797;" d="M 89.0,66.0 L 90.0,67.0 89.0,66.0 Z" />
	<path style="fill:#bebebe;" d="M 416.0,66.0 L 417.0,67.0 416.0,66.0 Z" />
	<path style="fill:#343434;" d="M 3.0,67.0 L 4.0,68.0 3.0,67.0 Z" />
	<path style="fill:#494949;" d="M 52.0,67.0 L 53.0,68.0 52.0,67.0 Z" />
	<path style="fill:#9a9a9a;" d="M 80.0,67.0 L 81.0,68.0 80.0,67.0 Z" />
	<path style="fill:#597797;" d="M 133.0,67.0 L 134.0,68.0 133.0,67.0 Z" />
	<path style="fill:#6f6f6f;" d="M 165.0,67.0 L 166.0,68.0 165.0,67.0 Z" />
	<path style="fill:#343434;" d="M 292.0,67.0 L 293.0,68.0 292.0,67.0 Z" />
	<path style="fill:#bebebe;" d="M 3.0,68.0 L 4.0,69.0 3.0,68.0 Z" />
	<path style="fill:#9a9a9a;" d="M 21.0,68.0 L 22.0,69.0 21.0,68.0 Z" />
	<path style="fill:#494949;" d="M 31.0,68.0 L 32.0,69.0 31.0,68.0 Z" />
	<path style="fill:#bebebe;" d="M 198.0,68.0 L 199.0,69.0 198.0,68.0 Z" />
	<path style="fill:#343434;" d="M 313.0,68.0 L 314.0,69.0 313.0,68.0 Z" />
	<path style="fill:#6f6f6f;" d="M 447.0,68.0 L 448.0,69.0 447.0,68.0 Z" />
	<path style="fill:#c9cfd5;" d="M 448.667,68.3333 C 448.222,68.7778 449.278,68.7222 449.333,68.6667 449.778,68.2222 448.722,68.2778 448.667,68.3333 Z" />
	<path style="fill:#9aaabb;" d="M 450.0,68.0 L 451.0,69.0 450.0,68.0 Z" />
	<path style="fill:#343434;" d="M 451.0,68.0 L 452.0,69.0 451.0,68.0 Z" />
	<path style="fill:#9aaabb;" d="M 145.0,69.0 L 146.0,70.0 145.0,69.0 M 154.0,69.0 L 154.0,72.0 155.0,72.0 C 154.749,70.5484 154.685,70.2483 154.0,69.0 Z" />
	<path style="fill:#343434;" d="M 192.0,69.0 L 193.0,70.0 192.0,69.0 Z" />
	<path style="fill:#bebebe;" d="M 193.0,69.0 L 194.0,70.0 193.0,69.0 Z" />
	<path style="fill:#5c5c5c;" d="M 229.0,69.0 L 230.0,70.0 229.0,69.0 Z" />
	<path style="fill:#bebebe;" d="M 230.0,69.0 L 231.0,70.0 230.0,69.0 Z" />
	<path style="fill:#ffffff;" d="M 237.0,70.0 C 234.268,69.5495 231.728,69.1985 229.001,69.9576 220.062,72.4452 217.474,87.6734 225.214,93.142 228.697,95.6031 235.929,96.1626 236.852,90.8912 237.351,88.0418 237.0,84.8837 237.0,82.0 L 237.0,70.0 Z" />
	<path style="fill:#858585;" d="M 234.0,69.0 L 235.0,70.0 234.0,69.0 Z" />
	<path style="fill:#9a9a9a;" d="M 264.0,69.0 L 265.0,70.0 264.0,69.0 Z" />
	<path style="fill:#c9cfd5;" d="M 323.0,69.0 L 324.0,70.0 323.0,69.0 Z" />
	<path style="fill:#858585;" d="M 406.0,69.0 L 407.0,70.0 406.0,69.0 Z" />
	<path style="fill:#6f6f6f;" d="M 415.0,69.0 L 416.0,70.0 415.0,69.0 M 444.0,69.0 L 445.0,70.0 444.0,69.0 Z" />
	<path style="fill:#ffffff;" d="M 440.0,78.0 L 457.0,75.0 C 454.047,64.8202 441.04,68.6929 440.0,78.0 Z" />
	<path style="fill:#9aaabb;" d="M 92.0,70.0 L 92.0,76.0 93.0,76.0 C 92.9528,73.7472 92.8742,72.0521 92.0,70.0 Z" />
	<path style="fill:#c9cfd5;" d="M 131.0,70.0 L 132.0,71.0 131.0,70.0 Z" />
	<path style="fill:#bebebe;" d="M 187.0,70.0 L 188.0,71.0 187.0,70.0 Z" />
	<path style="fill:#5c5c5c;" d="M 226.0,70.0 L 227.0,71.0 226.0,70.0 Z" />
	<path style="fill:#6f6f6f;" d="M 282.0,70.0 L 283.0,71.0 282.0,70.0 M 323.0,70.0 L 324.0,71.0 323.0,70.0 Z" />
	<path style="fill:#5c5c5c;" d="M 393.0,70.0 L 394.0,71.0 393.0,70.0 Z" />
	<path style="fill:#858585;" d="M 410.0,70.0 L 411.0,71.0 410.0,70.0 Z" />
	<path style="fill:#c9cfd5;" d="M 62.0,71.0 L 63.0,72.0 62.0,71.0 Z" />
	<path style="fill:#9a9a9a;" d="M 183.0,71.0 L 184.0,72.0 183.0,71.0 Z" />
	<path style="fill:#343434;" d="M 205.0,71.0 L 206.0,72.0 205.0,71.0 Z" />
	<path style="fill:#5c5c5c;" d="M 237.0,71.0 L 237.0,93.0 238.0,93.0 C 238.0,86.2977 239.603,77.2023 237.0,71.0 Z" />
	<path style="fill:#858585;" d="M 291.0,71.0 L 292.0,72.0 291.0,71.0 Z" />
	<path style="fill:#c9cfd5;" d="M 314.0,71.0 L 315.0,72.0 314.0,71.0 Z" />
	<path style="fill:#dedede;" d="M 376.333,71.6667 C 376.278,71.7222 376.222,72.7778 376.667,72.3333 376.722,72.2777 376.778,71.2223 376.333,71.6667 Z" />
	<path style="fill:#bebebe;" d="M 472.0,71.0 L 473.0,72.0 472.0,71.0 Z" />
	<path style="fill:#9a9a9a;" d="M 30.0,72.0 L 31.0,73.0 30.0,72.0 Z" />
	<path style="fill:#737c86;" d="M 62.0,72.0 L 63.0,73.0 62.0,72.0 Z" />
	<path style="fill:#bebebe;" d="M 340.0,72.0 L 341.0,73.0 340.0,72.0 Z" />
	<path style="fill:#5c5c5c;" d="M 425.0,72.0 L 426.0,73.0 425.0,72.0 Z" />
	<path style="fill:#bebebe;" d="M 4.0,73.0 L 5.0,74.0 4.0,73.0 Z" />
	<path style="fill:#6f6f6f;" d="M 79.0,73.0 L 80.0,74.0 79.0,73.0 Z" />
	<path style="fill:#9a9a9a;" d="M 393.0,73.0 L 394.0,74.0 393.0,73.0 Z" />
	<path style="fill:#c9cfd5;" d="M 22.0,74.0 L 23.0,75.0 22.0,74.0 Z" />
	<path style="fill:#9aaabb;" d="M 54.0,74.0 L 55.0,75.0 54.0,74.0 M 154.0,74.0 L 154.0,77.0 155.0,77.0 C 154.749,75.5484 154.685,75.2483 154.0,74.0 Z" />
	<path style="fill:#9a9a9a;" d="M 204.0,74.0 L 205.0,75.0 204.0,74.0 M 265.0,74.0 L 266.0,75.0 265.0,74.0 Z" />
	<path style="fill:#343434;" d="M 457.0,74.0 L 458.0,75.0 457.0,74.0 Z" />
	<path style="fill:#5c5c5c;" d="M 22.0,75.0 L 23.0,76.0 22.0,75.0 Z" />
	<path style="fill:#c9cfd5;" d="M 115.0,75.0 L 116.0,76.0 115.0,75.0 M 131.0,75.0 L 132.0,76.0 131.0,75.0 Z" />
	<path style="fill:#bebebe;" d="M 290.0,75.0 L 291.0,76.0 290.0,75.0 Z" />
	<path style="fill:#9a9a9a;" d="M 315.0,75.0 L 316.0,76.0 315.0,75.0 Z" />
	<path style="fill:#5c5c5c;" d="M 454.0,75.0 L 455.0,76.0 454.0,75.0 Z" />
	<path style="fill:#bebebe;" d="M 29.0,76.0 L 30.0,77.0 29.0,76.0 Z" />
	<path style="fill:#c9cfd5;" d="M 145.0,76.0 L 146.0,77.0 145.0,76.0 Z" />
	<path style="fill:#9aaabb;" d="M 221.0,76.0 L 222.0,77.0 221.0,76.0 M 283.0,76.0 L 284.0,77.0 283.0,76.0 M 402.0,76.0 L 403.0,77.0 402.0,76.0 Z" />
	<path style="fill:#bebebe;" d="M 424.0,76.0 L 425.0,77.0 424.0,76.0 Z" />
	<path style="fill:#5c5c5c;" d="M 448.0,76.0 L 449.0,77.0 448.0,76.0 Z" />
	<path style="fill:#c9cfd5;" d="M 102.0,77.0 L 103.0,78.0 102.0,77.0 Z" />
	<path style="fill:#494949;" d="M 339.0,77.0 L 340.0,78.0 339.0,77.0 M 377.0,77.0 L 378.0,78.0 377.0,77.0 M 424.0,77.0 L 425.0,78.0 424.0,77.0 Z" />
	<path style="fill:#c9cfd5;" d="M 441.0,77.0 L 442.0,78.0 441.0,77.0 Z" />
	<path style="fill:#494949;" d="M 442.0,77.0 L 443.0,78.0 442.0,77.0 Z" />
	<path style="fill:#bebebe;" d="M 5.0,78.0 L 6.0,79.0 5.0,78.0 Z" />
	<path style="fill:#5c5c5c;" d="M 55.0,78.0 L 56.0,79.0 55.0,78.0 Z" />
	<path style="fill:#c9cfd5;" d="M 103.0,78.0 L 104.0,79.0 103.0,78.0 Z" />
	<path style="fill:#9aaabb;" d="M 133.0,78.0 L 134.0,79.0 133.0,78.0 Z" />
	<path style="fill:#9a9a9a;" d="M 322.0,78.0 L 323.0,79.0 322.0,78.0 Z" />
	<path style="fill:#c9cfd5;" d="M 339.0,78.0 L 340.0,79.0 339.0,78.0 Z" />
	<path style="fill:#5c5c5c;" d="M 408.0,78.0 L 409.0,79.0 408.0,78.0 Z" />
	<path style="fill:#9aaabb;" d="M 78.0,79.0 L 79.0,80.0 78.0,79.0 Z" />
	<path style="fill:#597797;" d="M 111.0,79.0 L 112.0,80.0 111.0,79.0 Z" />
	<path style="fill:#9aaabb;" d="M 142.0,79.0 L 143.0,80.0 142.0,79.0 Z" />
	<path style="fill:#9a9a9a;" d="M 266.0,79.0 L 267.0,80.0 266.0,79.0 Z" />
	<path style="fill:#c9cfd5;" d="M 289.0,79.0 L 290.0,80.0 289.0,79.0 Z" />
	<path style="fill:#494949;" d="M 316.0,79.0 L 317.0,80.0 316.0,79.0 Z" />
	<path style="fill:#c9cfd5;" d="M 28.0,80.0 L 29.0,81.0 28.0,80.0 Z" />
	<path style="fill:#9a9a9a;" d="M 61.0,80.0 L 62.0,81.0 61.0,80.0 Z" />
	<path style="fill:#c9cfd5;" d="M 93.0,80.0 L 94.0,81.0 93.0,80.0 M 138.667,80.3333 C 138.222,80.7778 139.278,80.7222 139.333,80.6667 139.778,80.2222 138.722,80.2778 138.667,80.3333 Z" />
	<path style="fill:#494949;" d="M 412.0,80.0 L 413.0,81.0 412.0,80.0 Z" />
	<path style="fill:#9aaabb;" d="M 23.0,81.0 L 24.0,82.0 23.0,81.0 Z" />
	<path style="fill:#494949;" d="M 42.0,81.0 L 43.0,82.0 42.0,81.0 Z" />
	<path style="fill:#012f5f;" d="M 124.0,97.0 C 125.491,94.7461 127.147,92.4705 128.273,90.0023 132.9,79.8625 111.526,79.7382 120.223,92.9414 121.334,94.6287 122.483,95.7092 124.0,97.0 Z" />
	<path style="fill:#597797;" d="M 153.0,81.0 L 154.0,82.0 153.0,81.0 Z" />
	<path style="fill:#9a9a9a;" d="M 302.0,81.0 L 303.0,82.0 302.0,81.0 Z" />
	<path style="fill:#494949;" d="M 6.0,82.0 L 7.0,83.0 6.0,82.0 Z" />
	<path style="fill:#c9cfd5;" d="M 41.0,82.0 L 42.0,83.0 41.0,82.0 Z" />
	<path style="fill:#494949;" d="M 303.0,82.0 L 304.0,83.0 303.0,82.0 Z" />
	<path style="fill:#343434;" d="M 471.0,82.0 L 472.0,83.0 471.0,82.0 Z" />
	<path style="fill:#597797;" d="M 119.0,83.0 L 120.0,84.0 119.0,83.0 Z" />
	<path style="fill:#9aaabb;" d="M 127.0,83.0 L 128.0,84.0 127.0,83.0 Z" />
	<path style="fill:#343434;" d="M 267.0,83.0 L 268.0,84.0 267.0,83.0 Z" />
	<path style="fill:#858585;" d="M 284.0,83.0 L 285.0,84.0 284.0,83.0 Z" />
	<path style="fill:#bebebe;" d="M 338.0,83.0 L 339.0,84.0 338.0,83.0 Z" />
	<path style="fill:#9aaabb;" d="M 470.0,83.0 L 471.0,84.0 470.0,83.0 Z" />
	<path style="fill:#858585;" d="M 77.0,84.0 L 78.0,85.0 77.0,84.0 Z" />
	<path style="fill:#c9cfd5;" d="M 383.0,84.0 L 384.0,85.0 383.0,84.0 M 468.0,84.0 L 469.0,85.0 468.0,84.0 Z" />
	<path style="fill:#343434;" d="M 27.0,85.0 L 28.0,86.0 27.0,85.0 Z" />
	<path style="fill:#6f6f6f;" d="M 43.0,85.0 L 44.0,86.0 43.0,85.0 Z" />
	<path style="fill:#bebebe;" d="M 57.0,85.0 L 58.0,86.0 57.0,85.0 Z" />
	<path style="fill:#9a9a9a;" d="M 301.0,85.0 L 302.0,86.0 301.0,85.0 Z" />
	<path style="fill:#c9cfd5;" d="M 385.0,85.0 L 386.0,86.0 385.0,85.0 Z" />
	<path style="fill:#bebebe;" d="M 417.0,85.0 L 418.0,86.0 417.0,85.0 Z" />
	<path style="fill:#737c86;" d="M 462.0,85.0 L 463.0,86.0 462.0,85.0 M 40.0,86.0 L 41.0,87.0 40.0,86.0 Z" />
	<path style="fill:#6f6f6f;" d="M 304.0,86.0 L 305.0,87.0 304.0,86.0 Z" />
	<path style="fill:#bebebe;" d="M 318.0,86.0 L 319.0,87.0 318.0,86.0 Z" />
	<path style="fill:#6f6f6f;" d="M 321.0,86.0 L 322.0,87.0 321.0,86.0 Z" />
	<path style="fill:#5c5c5c;" d="M 388.0,86.0 L 389.0,87.0 388.0,86.0 Z" />
	<path style="fill:#9a9a9a;" d="M 424.0,86.0 L 425.0,87.0 424.0,86.0 Z" />
	<path style="fill:#5c5c5c;" d="M 455.0,86.0 L 456.0,87.0 455.0,86.0 Z" />
	<path style="fill:#c9cfd5;" d="M 456.0,86.0 L 457.0,87.0 456.0,86.0 Z" />
	<path style="fill:#bebebe;" d="M 7.0,87.0 L 8.0,88.0 7.0,87.0 M 60.0,87.0 L 61.0,88.0 60.0,87.0 Z" />
	<path style="fill:#9aaabb;" d="M 449.0,87.0 L 450.0,88.0 449.0,87.0 Z" />
	<path style="fill:#bebebe;" d="M 24.0,88.0 L 25.0,89.0 24.0,88.0 Z" />
	<path style="fill:#494949;" d="M 60.0,88.0 L 61.0,89.0 60.0,88.0 Z" />
	<path style="fill:#343434;" d="M 221.0,88.0 L 222.0,89.0 221.0,88.0 Z" />
	<path style="fill:#bebebe;" d="M 268.0,88.0 L 269.0,89.0 268.0,88.0 Z" />
	<path style="fill:#6f6f6f;" d="M 287.0,88.0 L 288.0,89.0 287.0,88.0 Z" />
	<path style="fill:#c9cfd5;" d="M 337.0,88.0 L 338.0,89.0 337.0,88.0 Z" />
	<path style="fill:#bebebe;" d="M 396.0,88.0 L 397.0,89.0 396.0,88.0 Z" />
	<path style="fill:#5c5c5c;" d="M 418.0,88.0 L 419.0,89.0 418.0,88.0 Z" />
	<path style="fill:#858585;" d="M 442.0,88.0 L 443.0,89.0 442.0,88.0 Z" />
	<path style="fill:#343434;" d="M 24.0,89.0 L 25.0,90.0 24.0,89.0 Z" />
	<path style="fill:#858585;" d="M 26.0,89.0 L 27.0,90.0 26.0,89.0 Z" />
	<path style="fill:#9a9a9a;" d="M 44.0,89.0 L 45.0,90.0 44.0,89.0 Z" />
	<path style="fill:#bebebe;" d="M 58.0,89.0 L 59.0,90.0 58.0,89.0 M 76.0,89.0 L 77.0,90.0 76.0,89.0 Z" />
	<path style="fill:#c9cfd5;" d="M 97.0,89.0 L 98.0,90.0 97.0,89.0 Z" />
	<path style="fill:#9aaabb;" d="M 128.0,89.0 L 129.0,90.0 128.0,89.0 Z" />
	<path style="fill:#5c5c5c;" d="M 204.0,89.0 L 205.0,90.0 204.0,89.0 Z" />
	<path style="fill:#494949;" d="M 300.0,89.0 L 301.0,90.0 300.0,89.0 Z" />
	<path style="fill:#343434;" d="M 400.0,89.0 L 401.0,90.0 400.0,89.0 M 39.0,90.0 L 40.0,91.0 39.0,90.0 Z" />
	<path style="fill:#9aaabb;" d="M 153.0,90.0 C 154.108,94.6551 154.0,99.2389 154.0,104.0 L 155.0,104.0 C 155.0,99.7426 156.4,92.971 153.0,90.0 Z" />
	<path style="fill:#737c86;" d="M 222.0,90.0 L 223.0,91.0 222.0,90.0 Z" />
	<path style="fill:#858585;" d="M 285.0,90.0 L 286.0,91.0 285.0,90.0 Z" />
	<path style="fill:#9aaabb;" d="M 305.0,90.0 L 306.0,91.0 305.0,90.0 Z" />
	<path style="fill:#bebebe;" d="M 319.0,90.0 L 320.0,91.0 319.0,90.0 Z" />
	<path style="fill:#6f6f6f;" d="M 441.0,90.0 L 442.0,91.0 441.0,90.0 Z" />
	<path style="fill:#9aaabb;" d="M 8.0,91.0 L 9.0,92.0 8.0,91.0 M 119.0,91.0 L 120.0,92.0 119.0,91.0 Z" />
	<path style="fill:#c9cfd5;" d="M 320.0,91.0 L 321.0,92.0 320.0,91.0 Z" />
	<path style="fill:#597797;" d="M 99.0,92.0 L 100.0,93.0 99.0,92.0 Z" />
	<path style="fill:#bebebe;" d="M 269.0,92.0 L 270.0,93.0 269.0,92.0 Z" />
	<path style="fill:#9a9a9a;" d="M 336.0,92.0 L 337.0,93.0 336.0,92.0 Z" />
	<path style="fill:#5c5c5c;" d="M 379.0,92.0 L 380.0,93.0 379.0,92.0 Z" />
	<path style="fill:#737c86;" d="M 381.0,92.0 L 382.0,93.0 381.0,92.0 Z" />
	<path style="fill:#bebebe;" d="M 467.0,92.0 L 468.0,93.0 467.0,92.0 Z" />
	<path style="fill:#c9cfd5;" d="M 45.0,93.0 L 46.0,94.0 45.0,93.0 Z" />
	<path style="fill:#858585;" d="M 75.0,93.0 L 76.0,94.0 75.0,93.0 Z" />
	<path style="fill:#c9cfd5;" d="M 100.0,93.0 L 101.0,94.0 100.0,93.0 Z" />
	<path style="fill:#9aaabb;" d="M 151.0,93.0 L 152.0,94.0 151.0,93.0 Z" />
	<path style="fill:#9a9a9a;" d="M 378.0,93.0 L 379.0,94.0 378.0,93.0 Z" />
	<path style="fill:#494949;" d="M 383.0,93.0 L 384.0,94.0 383.0,93.0 Z" />
	<path style="fill:#343434;" d="M 426.0,93.0 L 427.0,94.0 426.0,93.0 Z" />
	<path style="fill:#c9cfd5;" d="M 444.0,93.0 L 445.0,94.0 444.0,93.0 Z" />
	<path style="fill:#6f6f6f;" d="M 465.0,93.0 L 466.0,94.0 465.0,93.0 Z" />
	<path style="fill:#597797;" d="M 96.0,94.0 L 97.0,95.0 96.0,94.0 M 150.0,94.0 L 151.0,95.0 150.0,94.0 Z" />
	<path style="fill:#c9cfd5;" d="M 227.0,94.0 L 228.0,95.0 227.0,94.0 Z" />
	<path style="fill:#494949;" d="M 235.0,94.0 L 236.0,95.0 235.0,94.0 Z" />
	<path style="fill:#bebebe;" d="M 386.0,94.0 L 387.0,95.0 386.0,94.0 Z" />
	<path style="fill:#c9cfd5;" d="M 462.0,94.0 L 463.0,95.0 462.0,94.0 Z" />
	<path style="fill:#343434;" d="M 469.0,94.0 L 470.0,95.0 469.0,94.0 Z" />
	<path style="fill:#c9cfd5;" d="M 206.0,95.0 L 207.0,96.0 206.0,95.0 Z" />
	<path style="fill:#bebebe;" d="M 390.0,95.0 L 391.0,96.0 390.0,95.0 Z" />
	<path style="fill:#6f6f6f;" d="M 399.0,95.0 L 400.0,96.0 399.0,95.0 Z" />
	<path style="fill:#bebebe;" d="M 449.0,95.0 L 450.0,96.0 449.0,95.0 M 458.0,95.0 L 459.0,96.0 458.0,95.0 Z" />
	<path style="fill:#494949;" d="M 46.0,96.0 L 47.0,97.0 46.0,96.0 Z" />
	<path style="fill:#597797;" d="M 103.0,96.0 L 104.0,97.0 103.0,96.0 Z" />
	<path style="fill:#c9cfd5;" d="M 122.0,96.0 L 123.0,97.0 122.0,96.0 M 143.0,96.0 L 144.0,97.0 143.0,96.0 Z" />
	<path style="fill:#9aaabb;" d="M 335.0,96.0 L 336.0,97.0 335.0,96.0 Z" />
	<path style="fill:#9a9a9a;" d="M 418.0,96.0 L 419.0,97.0 418.0,96.0 Z" />
	<path style="fill:#bebebe;" d="M 74.0,97.0 L 75.0,98.0 74.0,97.0 Z" />
	<path style="fill:#597797;" d="M 142.0,97.0 L 143.0,98.0 142.0,97.0 Z" />
	<path style="fill:#6f6f6f;" d="M 307.0,97.0 L 308.0,98.0 307.0,97.0 Z" />
	<path style="fill:#bebebe;" d="M 428.0,97.0 L 429.0,98.0 428.0,97.0 Z" />
	<path style="fill:#858585;" d="M 10.0,98.0 L 11.0,99.0 10.0,98.0 Z" />
	<path style="fill:#6f6f6f;" d="M 208.0,98.0 L 209.0,99.0 208.0,98.0 Z" />
	<path style="fill:#c9cfd5;" d="M 298.0,98.0 L 299.0,99.0 298.0,98.0 M 37.0,99.0 L 38.0,100.0 37.0,99.0 Z" />
	<path style="fill:#597797;" d="M 107.0,99.0 L 108.0,100.0 107.0,99.0 M 139.0,99.0 L 140.0,100.0 139.0,99.0 Z" />
	<path style="fill:#bebebe;" d="M 253.0,99.0 L 254.0,100.0 253.0,99.0 M 271.0,99.0 L 272.0,100.0 271.0,99.0 Z" />
	<path style="fill:#494949;" d="M 73.0,100.0 L 74.0,101.0 73.0,100.0 Z" />
	<path style="fill:#c9cfd5;" d="M 102.0,100.0 L 103.0,101.0 102.0,100.0 Z" />
	<path style="fill:#9aaabb;" d="M 109.0,100.0 L 110.0,101.0 109.0,100.0 M 137.0,100.0 L 138.0,101.0 137.0,100.0 M 144.0,100.0 L 145.0,101.0 144.0,100.0 M 11.0,101.0 L 12.0,102.0 11.0,101.0 Z" />
	<path style="fill:#597797;" d="M 111.0,101.0 L 112.0,102.0 111.0,101.0 Z" />
	<path style="fill:#9aaabb;" d="M 135.0,101.0 L 136.0,102.0 135.0,101.0 Z" />
	<path style="fill:#5c5c5c;" d="M 165.0,101.0 L 166.0,102.0 165.0,101.0 Z" />
	<path style="fill:#858585;" d="M 377.0,101.0 L 378.0,102.0 377.0,101.0 Z" />
	<path style="fill:#9aaabb;" d="M 105.0,102.0 L 106.0,103.0 105.0,102.0 Z" />
	<path style="fill:#c9cfd5;" d="M 114.0,102.0 L 115.0,103.0 114.0,102.0 M 132.0,102.0 L 133.0,103.0 132.0,102.0 Z" />
	<path style="fill:#597797;" d="M 141.0,102.0 L 142.0,103.0 141.0,102.0 Z" />
	<path style="fill:#9aaabb;" d="M 12.0,103.0 L 13.0,104.0 12.0,103.0 Z" />
	<path style="fill:#737c86;" d="M 72.0,103.0 L 73.0,104.0 72.0,103.0 Z" />
	<path style="fill:#9aaabb;" d="M 107.0,103.0 L 108.0,104.0 107.0,103.0 M 118.0,103.0 L 119.0,104.0 118.0,103.0 M 128.0,103.0 L 129.0,104.0 128.0,103.0 Z" />
	<path style="fill:#bebebe;" d="M 213.0,103.0 L 214.0,104.0 213.0,103.0 Z" />
	<path style="fill:#494949;" d="M 309.0,103.0 L 310.0,104.0 309.0,103.0 Z" />
	<path style="fill:#9a9a9a;" d="M 434.0,103.0 L 435.0,104.0 434.0,103.0 Z" />
	<path style="fill:#5c5c5c;" d="M 469.0,103.0 L 470.0,104.0 469.0,103.0 Z" />
	<path style="fill:#6f6f6f;" d="M 13.0,104.0 L 14.0,105.0 13.0,104.0 Z" />
	<path style="fill:#343434;" d="M 49.0,104.0 L 50.0,105.0 49.0,104.0 Z" />
	<path style="fill:#737c86;" d="M 468.0,104.0 L 469.0,105.0 468.0,104.0 Z" />
	<path style="fill:#6f6f6f;" d="M 34.0,105.0 L 35.0,106.0 34.0,105.0 Z" />
	<path style="fill:#bebebe;" d="M 50.0,105.0 L 51.0,106.0 50.0,105.0 Z" />
	<path style="fill:#858585;" d="M 70.0,105.0 L 71.0,106.0 70.0,105.0 Z" />
	<path style="fill:#c9cfd5;" d="M 275.0,105.0 L 276.0,106.0 275.0,105.0 Z" />
	<path style="fill:#494949;" d="M 311.0,105.0 L 312.0,106.0 311.0,105.0 Z" />
	<path style="fill:#858585;" d="M 352.0,105.0 L 353.0,106.0 352.0,105.0 Z" />
	<path style="fill:#343434;" d="M 381.0,105.0 L 382.0,106.0 381.0,105.0 Z" />
	<path style="fill:#858585;" d="M 17.0,106.0 L 18.0,107.0 17.0,106.0 Z" />
	<path style="fill:#343434;" d="M 67.0,106.0 L 68.0,107.0 67.0,106.0 Z" />
	<path style="fill:#9aaabb;" d="M 115.0,106.0 L 116.0,107.0 115.0,106.0 Z" />
	<path style="fill:#597797;" d="M 131.0,106.0 L 132.0,107.0 131.0,106.0 Z" />
	<path style="fill:#6f6f6f;" d="M 168.0,106.0 L 169.0,107.0 168.0,106.0 Z" />
	<path style="fill:#9a9a9a;" d="M 219.0,106.0 L 220.0,107.0 219.0,106.0 M 243.0,106.0 L 244.0,107.0 243.0,106.0 Z" />
	<path style="fill:#494949;" d="M 278.0,106.0 L 279.0,107.0 278.0,106.0 Z" />
	<path style="fill:#9a9a9a;" d="M 313.0,106.0 L 314.0,107.0 313.0,106.0 Z" />
	<path style="fill:#737c86;" d="M 328.0,106.0 L 329.0,107.0 328.0,106.0 Z" />
	<path style="fill:#5c5c5c;" d="M 383.0,106.0 L 384.0,107.0 383.0,106.0 Z" />
	<path style="fill:#9a9a9a;" d="M 440.0,106.0 L 441.0,107.0 440.0,106.0 Z" />
	<path style="fill:#5c5c5c;" d="M 464.0,106.0 L 465.0,107.0 464.0,106.0 Z" />
	<path style="fill:#bebebe;" d="M 22.0,107.0 L 23.0,108.0 22.0,107.0 Z" />
	<path style="fill:#6f6f6f;" d="M 23.0,107.0 L 23.0,108.0 26.0,108.0 C 24.7516,107.315 24.4516,107.251 23.0,107.0 Z" />
	<path style="fill:#9aaabb;" d="M 26.0,107.0 L 27.0,108.0 26.0,107.0 Z" />
	<path style="fill:#c9cfd5;" d="M 57.0,107.0 L 58.0,108.0 57.0,107.0 Z" />
	<path style="fill:#6f6f6f;" d="M 58.0,107.0 L 58.0,108.0 61.0,108.0 C 59.7516,107.315 59.4516,107.251 58.0,107.0 Z" />
	<path style="fill:#9a9a9a;" d="M 61.0,107.0 L 62.0,108.0 61.0,107.0 Z" />
	<path style="fill:#737c86;" d="M 172.0,107.0 L 172.0,108.0 177.0,108.0 C 175.231,107.221 173.964,107.088 172.0,107.0 Z" />
	<path style="fill:#c9cfd5;" d="M 177.0,107.0 L 178.0,108.0 177.0,107.0 Z" />
	<path style="fill:#5c5c5c;" d="M 223.0,107.0 L 224.0,108.0 223.0,107.0 Z" />
	<path style="fill:#343434;" d="M 239.0,107.0 L 240.0,108.0 239.0,107.0 Z" />
	<path style="fill:#858585;" d="M 283.0,107.0 L 283.0,108.0 287.0,108.0 C 285.494,107.317 284.685,107.174 283.0,107.0 Z" />
	<path style="fill:#bebebe;" d="M 287.0,107.0 L 288.0,108.0 287.0,107.0 Z" />
	<path style="fill:#737c86;" d="M 318.0,107.0 L 318.0,108.0 322.0,108.0 C 320.494,107.317 319.685,107.174 318.0,107.0 Z" />
	<path style="fill:#9aaabb;" d="M 322.0,107.0 L 323.0,108.0 322.0,107.0 Z" />
	<path style="fill:#bebebe;" d="M 357.0,107.0 L 358.0,108.0 357.0,107.0 Z" />
	<path style="fill:#6f6f6f;" d="M 358.0,107.0 L 358.0,108.0 362.0,108.0 C 360.494,107.317 359.685,107.174 358.0,107.0 Z" />
	<path style="fill:#bebebe;" d="M 362.0,107.0 L 363.0,108.0 362.0,107.0 Z" />
	<path style="fill:#9a9a9a;" d="M 386.0,107.0 L 387.0,108.0 386.0,107.0 Z" />
	<path style="fill:#5c5c5c;" d="M 405.0,107.0 L 406.0,108.0 405.0,107.0 Z" />
	<path style="fill:#494949;" d="M 444.0,107.0 L 445.0,108.0 444.0,107.0 Z" />
	<path style="fill:#bebebe;" d="M 461.0,107.0 L 462.0,108.0 461.0,107.0 M 394.0,108.0 L 394.0,109.0 399.0,109.0 C 397.231,108.221 395.964,108.088 394.0,108.0 Z" />
</g>
</svg>